<svg version="1.1" xmlns="http://www.w3.org/2000/svg" xmlns:xlink="http://www.w3.org/1999/xlink" width="449" height="870"><defs></defs><g><g transform="translate(-22,2) scale(1,1)"><rect fill="#d2d2d2" stroke="none" x="72" y="8" width="256" height="56"></rect></g><g transform="translate(-22,2) scale(1,1)"><path fill="none" stroke="#000000" d="M 72 8 L 328 8 L 328 64 L 72 64 L 72 8 Z Z" stroke-miterlimit="10"></path></g><g transform="translate(-22,2) scale(1,1)"><rect fill="#C0C0C0" stroke="none" x="39" y="183" width="267" height="90" opacity="0.2"></rect></g><g transform="translate(-22,2) scale(1,1)"><rect fill="#fcc573" stroke="none" x="32" y="176" width="267" height="90"></rect></g><g transform="translate(-22,2) scale(1,1)"><path fill="none" stroke="#000000" d="M 32 176 L 299 176 L 299 266 L 32 266 L 32 176 Z Z" stroke-miterlimit="10"></path></g><g transform="translate(-22,2) scale(1,1)"><path fill="none" stroke="#000000" d="M 32 214 L 299 214" stroke-miterlimit="10"></path></g><g transform="translate(-22,2) scale(1,1)"><g><path fill="none" stroke="none"></path><text fill="#000000" stroke="none" font-family="Arial" font-size="13px" font-style="normal" font-weight="normal" text-decoration="none" x="134" y="193.5">«interface»</text></g></g><g transform="translate(-22,2) scale(1,1)"><g><path fill="none" stroke="none"></path><text fill="#000000" stroke="none" font-family="Arial" font-size="13px" font-style="normal" font-weight="bold" text-decoration="none" x="146.5" y="208.5">IGame</text></g></g><g transform="translate(-22,2) scale(1,1)"><g><path fill="none" stroke="none"></path><text fill="#000000" stroke="none" font-family="Arial" font-size="13px" font-style="normal" font-weight="normal" text-decoration="none" x="37" y="231.5">+run()</text></g></g><g transform="translate(-22,2) scale(1,1)"><g><path fill="none" stroke="none"></path><text fill="#000000" stroke="none" font-family="Arial" font-size="13px" font-style="normal" font-weight="normal" text-decoration="none" x="37" y="246.5">+stop()</text></g></g><g transform="translate(-22,2) scale(1,1)"><g><path fill="none" stroke="none"></path><text fill="#000000" stroke="none" font-family="Arial" font-size="13px" font-style="normal" font-weight="normal" text-decoration="none" x="37" y="261.5">+init(graphic: IGlib, map: Map, player: string)</text></g></g><g transform="translate(-22,2) scale(1,1)"><rect fill="#C0C0C0" stroke="none" x="39" y="279" width="429" height="105" opacity="0.2"></rect></g><g transform="translate(-22,2) scale(1,1)"><rect fill="#fcc573" stroke="none" x="32" y="272" width="429" height="105"></rect></g><g transform="translate(-22,2) scale(1,1)"><path fill="none" stroke="#000000" d="M 32 272 L 461 272 L 461 377 L 32 377 L 32 272 Z Z" stroke-miterlimit="10"></path></g><g transform="translate(-22,2) scale(1,1)"><path fill="none" stroke="#000000" d="M 32 310 L 461 310" stroke-miterlimit="10"></path></g><g transform="translate(-22,2) scale(1,1)"><g><path fill="none" stroke="none"></path><text fill="#000000" stroke="none" font-family="Arial" font-size="13px" font-style="normal" font-weight="normal" text-decoration="none" x="215" y="289.5">«interface»</text></g></g><g transform="translate(-22,2) scale(1,1)"><g><path fill="none" stroke="none"></path><text fill="#000000" stroke="none" font-family="Arial" font-size="13px" font-style="normal" font-weight="bold" text-decoration="none" x="233.5" y="304.5">IGlib</text></g></g><g transform="translate(-22,2) scale(1,1)"><g><path fill="none" stroke="none"></path><text fill="#000000" stroke="none" font-family="Arial" font-size="13px" font-style="normal" font-weight="normal" text-decoration="none" x="37" y="327.5">+getLastEvent(): UserEvent</text></g></g><g transform="translate(-22,2) scale(1,1)"><g><path fill="none" stroke="none"></path><text fill="#000000" stroke="none" font-family="Arial" font-size="13px" font-style="normal" font-weight="normal" text-decoration="none" x="37" y="342.5">+drawMap(map: Map)</text></g></g><g transform="translate(-22,2) scale(1,1)"><g><path fill="none" stroke="none"></path><text fill="#000000" stroke="none" font-family="Arial" font-size="13px" font-style="normal" font-weight="normal" text-decoration="none" x="37" y="357.5">+drawEntity(entity: Entity)</text></g></g><g transform="translate(-22,2) scale(1,1)"><g><path fill="none" stroke="none"></path><text fill="#000000" stroke="none" font-family="Arial" font-size="13px" font-style="normal" font-weight="normal" text-decoration="none" x="37" y="372.5">+drawMenu(informations: CoreInformations, selection: MenuInformations)</text></g></g><g transform="translate(-22,2) scale(1,1)"><rect fill="#C0C0C0" stroke="none" x="39" y="79" width="175" height="87" opacity="0.2"></rect></g><g transform="translate(-22,2) scale(1,1)"><rect fill="#d2d2d2" stroke="none" x="32" y="72" width="175" height="87"></rect></g><g transform="translate(-22,2) scale(1,1)"><path fill="none" stroke="#000000" d="M 32 72 L 207 72 L 207 159 L 32 159 L 32 72 Z Z" stroke-miterlimit="10"></path></g><g transform="translate(-22,2) scale(1,1)"><path fill="none" stroke="#000000" d="M 32 97 L 207 97" stroke-miterlimit="10"></path></g><g transform="translate(-22,2) scale(1,1)"><path fill="none" stroke="#000000" d="M 32 150 L 207 150" stroke-miterlimit="10"></path></g><g transform="translate(-22,2) scale(1,1)"><g><path fill="none" stroke="none"></path><text fill="#000000" stroke="none" font-family="Arial" font-size="13px" font-style="normal" font-weight="bold" text-decoration="none" x="71" y="91.5">CoreInformations</text></g></g><g transform="translate(-22,2) scale(1,1)"><g><path fill="none" stroke="none"></path><text fill="#000000" stroke="none" font-family="Arial" font-size="13px" font-style="normal" font-weight="normal" text-decoration="none" x="37" y="114.5">+games: vector&lt;string&gt;</text></g></g><g transform="translate(-22,2) scale(1,1)"><g><path fill="none" stroke="none"></path><text fill="#000000" stroke="none" font-family="Arial" font-size="13px" font-style="normal" font-weight="normal" text-decoration="none" x="37" y="129.5">+librairies: vector&lt;string&gt;</text></g></g><g transform="translate(-22,2) scale(1,1)"><g><path fill="none" stroke="none"></path><text fill="#000000" stroke="none" font-family="Arial" font-size="13px" font-style="normal" font-weight="normal" text-decoration="none" x="37" y="144.5">+scores: vector&lt;string, uint&gt;</text></g></g><g transform="translate(-22,2) scale(1,1)"><rect fill="#C0C0C0" stroke="none" x="223" y="79" width="175" height="87" opacity="0.2"></rect></g><g transform="translate(-22,2) scale(1,1)"><rect fill="#d2d2d2" stroke="none" x="216" y="72" width="175" height="87"></rect></g><g transform="translate(-22,2) scale(1,1)"><path fill="none" stroke="#000000" d="M 216 72 L 391 72 L 391 159 L 216 159 L 216 72 Z Z" stroke-miterlimit="10"></path></g><g transform="translate(-22,2) scale(1,1)"><path fill="none" stroke="#000000" d="M 216 97 L 391 97" stroke-miterlimit="10"></path></g><g transform="translate(-22,2) scale(1,1)"><path fill="none" stroke="#000000" d="M 216 150 L 391 150" stroke-miterlimit="10"></path></g><g transform="translate(-22,2) scale(1,1)"><g><path fill="none" stroke="none"></path><text fill="#000000" stroke="none" font-family="Arial" font-size="13px" font-style="normal" font-weight="bold" text-decoration="none" x="252.5" y="91.5">MenuInformations</text></g></g><g transform="translate(-22,2) scale(1,1)"><g><path fill="none" stroke="none"></path><text fill="#000000" stroke="none" font-family="Arial" font-size="13px" font-style="normal" font-weight="normal" text-decoration="none" x="221" y="114.5">+game: string</text></g></g><g transform="translate(-22,2) scale(1,1)"><g><path fill="none" stroke="none"></path><text fill="#000000" stroke="none" font-family="Arial" font-size="13px" font-style="normal" font-weight="normal" text-decoration="none" x="221" y="129.5">+librairy: string</text></g></g><g transform="translate(-22,2) scale(1,1)"><g><path fill="none" stroke="none"></path><text fill="#000000" stroke="none" font-family="Arial" font-size="13px" font-style="normal" font-weight="normal" text-decoration="none" x="221" y="144.5">+characterName: string</text></g></g><g transform="translate(-22,2) scale(1,1)"><rect fill="#C0C0C0" stroke="none" x="39" y="559" width="181" height="132" opacity="0.2"></rect></g><g transform="translate(-22,2) scale(1,1)"><rect fill="#5dbbff" stroke="none" x="32" y="552" width="181" height="132"></rect></g><g transform="translate(-22,2) scale(1,1)"><path fill="none" stroke="#000000" d="M 32 552 L 213 552 L 213 684 L 32 684 L 32 552 Z Z" stroke-miterlimit="10"></path></g><g transform="translate(-22,2) scale(1,1)"><path fill="none" stroke="#000000" d="M 32 577 L 213 577" stroke-miterlimit="10"></path></g><g transform="translate(-22,2) scale(1,1)"><path fill="none" stroke="#000000" d="M 32 660 L 213 660" stroke-miterlimit="10"></path></g><g transform="translate(-22,2) scale(1,1)"><g><path fill="none" stroke="none"></path><text fill="#000000" stroke="none" font-family="Arial" font-size="13px" font-style="normal" font-weight="bold" text-decoration="none" x="105.5" y="571.5">Entity</text></g></g><g transform="translate(-22,2) scale(1,1)"><g><path fill="none" stroke="none"></path><text fill="#000000" stroke="none" font-family="Arial" font-size="13px" font-style="normal" font-weight="normal" text-decoration="none" x="37" y="594.5">-m_size: float</text></g></g><g transform="translate(-22,2) scale(1,1)"><g><path fill="none" stroke="none"></path><text fill="#000000" stroke="none" font-family="Arial" font-size="13px" font-style="normal" font-weight="normal" text-decoration="none" x="37" y="609.5">-m_ascii: uchar</text></g></g><g transform="translate(-22,2) scale(1,1)"><g><path fill="none" stroke="none"></path><text fill="#000000" stroke="none" font-family="Arial" font-size="13px" font-style="normal" font-weight="normal" text-decoration="none" x="37" y="624.5">-m_sprite: string</text></g></g><g transform="translate(-22,2) scale(1,1)"><g><path fill="none" stroke="none"></path><text fill="#000000" stroke="none" font-family="Arial" font-size="13px" font-style="normal" font-weight="normal" text-decoration="none" x="37" y="639.5">-m_direction: Direction</text></g></g><g transform="translate(-22,2) scale(1,1)"><g><path fill="none" stroke="none"></path><text fill="#000000" stroke="none" font-family="Arial" font-size="13px" font-style="normal" font-weight="normal" text-decoration="none" x="37" y="654.5">-m_position: pair&lt;float, float&gt;</text></g></g><g transform="translate(-22,2) scale(1,1)"><rect fill="#C0C0C0" stroke="none" x="327" y="719" width="131" height="101" opacity="0.2"></rect></g><g transform="translate(-22,2) scale(1,1)"><rect fill="#ff6767" stroke="none" x="320" y="712" width="131" height="101"></rect></g><g transform="translate(-22,2) scale(1,1)"><path fill="none" stroke="#000000" d="M 320 712 L 451 712 L 451 813 L 320 813 L 320 712 Z Z" stroke-miterlimit="10"></path></g><g transform="translate(-22,2) scale(1,1)"><path fill="none" stroke="#000000" d="M 422 717 L 446 717 L 446 741 L 422 741 L 422 717 Z Z" stroke-miterlimit="10"></path></g><g transform="translate(-22,2) scale(1,1)"><path fill="none" stroke="#000000" d="M 422 717 L 446 741" stroke-miterlimit="10"></path></g><g transform="translate(-22,2) scale(1,1)"><path fill="none" stroke="#000000" d="M 446 717 L 422 741" stroke-miterlimit="10"></path></g><g transform="translate(-22,2) scale(1,1)"><path fill="none" stroke="#000000" d="M 320 746 L 451 746" stroke-miterlimit="10"></path></g><g transform="translate(-22,2) scale(1,1)"><g><path fill="none" stroke="none"></path><text fill="#000000" stroke="none" font-family="Arial" font-size="13px" font-style="normal" font-weight="bold" text-decoration="none" x="348" y="731.5">Direction</text></g></g><g transform="translate(-22,2) scale(1,1)"><g><path fill="none" stroke="none"></path><text fill="#000000" stroke="none" font-family="Arial" font-size="13px" font-style="normal" font-weight="normal" text-decoration="none" x="325" y="763.5">TOP</text></g></g><g transform="translate(-22,2) scale(1,1)"><g><path fill="none" stroke="none"></path><text fill="#000000" stroke="none" font-family="Arial" font-size="13px" font-style="normal" font-weight="normal" text-decoration="none" x="325" y="778.5">LEFT</text></g></g><g transform="translate(-22,2) scale(1,1)"><g><path fill="none" stroke="none"></path><text fill="#000000" stroke="none" font-family="Arial" font-size="13px" font-style="normal" font-weight="normal" text-decoration="none" x="325" y="793.5">RIGHT</text></g></g><g transform="translate(-22,2) scale(1,1)"><g><path fill="none" stroke="none"></path><text fill="#000000" stroke="none" font-family="Arial" font-size="13px" font-style="normal" font-weight="normal" text-decoration="none" x="325" y="808.5">BOTTOM</text></g></g><g transform="translate(-22,2) scale(1,1)"><g><path fill="none" stroke="none"></path><text fill="#000000" stroke="none" font-family="Arial" font-size="13px" font-style="normal" font-weight="normal" text-decoration="none" x="85" y="34">using Map = vector&lt;string&gt;</text></g></g><g transform="translate(-22,2) scale(1,1)"><g><path fill="none" stroke="none"></path><text fill="#000000" stroke="none" font-family="Arial" font-size="13px" font-style="normal" font-weight="normal" text-decoration="none" x="85" y="49">using Score = vector&lt;pair&lt;string, uint&gt;&gt;</text></g></g><g transform="translate(-22,2) scale(1,1)"><rect fill="#C0C0C0" stroke="none" x="39" y="407" width="272" height="130" opacity="0.2"></rect></g><g transform="translate(-22,2) scale(1,1)"><rect fill="#5dbbff" stroke="none" x="32" y="400" width="272" height="130"></rect></g><g transform="translate(-22,2) scale(1,1)"><path fill="none" stroke="#000000" d="M 32 400 L 304 400 L 304 530 L 32 530 L 32 400 Z Z" stroke-miterlimit="10"></path></g><g transform="translate(-22,2) scale(1,1)"><path fill="none" stroke="#000000" d="M 32 425 L 304 425" stroke-miterlimit="10"></path></g><g transform="translate(-22,2) scale(1,1)"><path fill="none" stroke="#000000" d="M 32 478 L 304 478" stroke-miterlimit="10"></path></g><g transform="translate(-22,2) scale(1,1)"><g><path fill="none" stroke="none"></path><text fill="#000000" stroke="none" font-family="Arial" font-size="13px" font-style="normal" font-weight="bold" text-decoration="none" x="154.5" y="419.5">Core</text></g></g><g transform="translate(-22,2) scale(1,1)"><g><path fill="none" stroke="none"></path><text fill="#000000" stroke="none" font-family="Arial" font-size="13px" font-style="normal" font-weight="normal" text-decoration="none" x="37" y="442.5">-m_games: vector&lt;string&gt;</text></g></g><g transform="translate(-22,2) scale(1,1)"><g><path fill="none" stroke="none"></path><text fill="#000000" stroke="none" font-family="Arial" font-size="13px" font-style="normal" font-weight="normal" text-decoration="none" x="37" y="457.5">-m_librairies: vector&lt;string&gt;</text></g></g><g transform="translate(-22,2) scale(1,1)"><g><path fill="none" stroke="none"></path><text fill="#000000" stroke="none" font-family="Arial" font-size="13px" font-style="normal" font-weight="normal" text-decoration="none" x="37" y="472.5">-m_scores: map&lt;string, vector&lt;Score&gt;&gt;</text></g></g><g transform="translate(-22,2) scale(1,1)"><g><path fill="none" stroke="none"></path><text fill="#000000" stroke="none" font-family="Arial" font-size="13px" font-style="normal" font-weight="normal" text-decoration="none" x="37" y="495.5">+Start()</text></g></g><g transform="translate(-22,2) scale(1,1)"><g><path fill="none" stroke="none"></path><text fill="#000000" stroke="none" font-family="Arial" font-size="13px" font-style="normal" font-weight="normal" text-decoration="none" x="37" y="510.5">-showMenu()</text></g></g><g transform="translate(-22,2) scale(1,1)"><g><path fill="none" stroke="none"></path><text fill="#000000" stroke="none" font-family="Arial" font-size="13px" font-style="normal" font-weight="normal" text-decoration="none" x="37" y="525.5">-loadGraphicLibrary()</text></g></g><g transform="translate(-22,2) scale(1,1)"><rect fill="#C0C0C0" stroke="none" x="39" y="719" width="131" height="146" opacity="0.2"></rect></g><g transform="translate(-22,2) scale(1,1)"><rect fill="#ff6767" stroke="none" x="32" y="712" width="131" height="146"></rect></g><g transform="translate(-22,2) scale(1,1)"><path fill="none" stroke="#000000" d="M 32 712 L 163 712 L 163 858 L 32 858 L 32 712 Z Z" stroke-miterlimit="10"></path></g><g transform="translate(-22,2) scale(1,1)"><path fill="none" stroke="#000000" d="M 134 717 L 158 717 L 158 741 L 134 741 L 134 717 Z Z" stroke-miterlimit="10"></path></g><g transform="translate(-22,2) scale(1,1)"><path fill="none" stroke="#000000" d="M 134 717 L 158 741" stroke-miterlimit="10"></path></g><g transform="translate(-22,2) scale(1,1)"><path fill="none" stroke="#000000" d="M 158 717 L 134 741" stroke-miterlimit="10"></path></g><g transform="translate(-22,2) scale(1,1)"><path fill="none" stroke="#000000" d="M 32 746 L 163 746" stroke-miterlimit="10"></path></g><g transform="translate(-22,2) scale(1,1)"><g><path fill="none" stroke="none"></path><text fill="#000000" stroke="none" font-family="Arial" font-size="13px" font-style="normal" font-weight="bold" text-decoration="none" x="56" y="731.5">UserEvent</text></g></g><g transform="translate(-22,2) scale(1,1)"><g><path fill="none" stroke="none"></path><text fill="#000000" stroke="none" font-family="Arial" font-size="13px" font-style="normal" font-weight="normal" text-decoration="none" x="37" y="763.5">NONE</text></g></g><g transform="translate(-22,2) scale(1,1)"><g><path fill="none" stroke="none"></path><text fill="#000000" stroke="none" font-family="Arial" font-size="13px" font-style="normal" font-weight="normal" text-decoration="none" x="37" y="778.5">UP</text></g></g><g transform="translate(-22,2) scale(1,1)"><g><path fill="none" stroke="none"></path><text fill="#000000" stroke="none" font-family="Arial" font-size="13px" font-style="normal" font-weight="normal" text-decoration="none" x="37" y="793.5">LEFT</text></g></g><g transform="translate(-22,2) scale(1,1)"><g><path fill="none" stroke="none"></path><text fill="#000000" stroke="none" font-family="Arial" font-size="13px" font-style="normal" font-weight="normal" text-decoration="none" x="37" y="808.5">RIGHT</text></g></g><g transform="translate(-22,2) scale(1,1)"><g><path fill="none" stroke="none"></path><text fill="#000000" stroke="none" font-family="Arial" font-size="13px" font-style="normal" font-weight="normal" text-decoration="none" x="37" y="823.5">DOWN</text></g></g><g transform="translate(-22,2) scale(1,1)"><g><path fill="none" stroke="none"></path><text fill="#000000" stroke="none" font-family="Arial" font-size="13px" font-style="normal" font-weight="normal" text-decoration="none" x="37" y="838.5">ACTION1</text></g></g><g transform="translate(-22,2) scale(1,1)"><g><path fill="none" stroke="none"></path><text fill="#000000" stroke="none" font-family="Arial" font-size="13px" font-style="normal" font-weight="normal" text-decoration="none" x="37" y="853.5">ACTION2</text></g></g><g transform="translate(-22,2) scale(1,1)"><rect fill="#C0C0C0" stroke="none" x="183" y="719" width="131" height="116" opacity="0.2"></rect></g><g transform="translate(-22,2) scale(1,1)"><rect fill="#ff6767" stroke="none" x="176" y="712" width="131" height="116"></rect></g><g transform="translate(-22,2) scale(1,1)"><path fill="none" stroke="#000000" d="M 176 712 L 307 712 L 307 828 L 176 828 L 176 712 Z Z" stroke-miterlimit="10"></path></g><g transform="translate(-22,2) scale(1,1)"><path fill="none" stroke="#000000" d="M 278 717 L 302 717 L 302 741 L 278 741 L 278 717 Z Z" stroke-miterlimit="10"></path></g><g transform="translate(-22,2) scale(1,1)"><path fill="none" stroke="#000000" d="M 278 717 L 302 741" stroke-miterlimit="10"></path></g><g transform="translate(-22,2) scale(1,1)"><path fill="none" stroke="#000000" d="M 302 717 L 278 741" stroke-miterlimit="10"></path></g><g transform="translate(-22,2) scale(1,1)"><path fill="none" stroke="#000000" d="M 176 746 L 307 746" stroke-miterlimit="10"></path></g><g transform="translate(-22,2) scale(1,1)"><g><path fill="none" stroke="none"></path><text fill="#000000" stroke="none" font-family="Arial" font-size="13px" font-style="normal" font-weight="bold" text-decoration="none" x="198.5" y="731.5">EntityType</text></g></g><g transform="translate(-22,2) scale(1,1)"><g><path fill="none" stroke="none"></path><text fill="#000000" stroke="none" font-family="Arial" font-size="13px" font-style="normal" font-weight="normal" text-decoration="none" x="181" y="763.5">WALL</text></g></g><g transform="translate(-22,2) scale(1,1)"><g><path fill="none" stroke="none"></path><text fill="#000000" stroke="none" font-family="Arial" font-size="13px" font-style="normal" font-weight="normal" text-decoration="none" x="181" y="778.5">EMPTY</text></g></g><g transform="translate(-22,2) scale(1,1)"><g><path fill="none" stroke="none"></path><text fill="#000000" stroke="none" font-family="Arial" font-size="13px" font-style="normal" font-weight="normal" text-decoration="none" x="181" y="793.5">PICKUP</text></g></g><g transform="translate(-22,2) scale(1,1)"><g><path fill="none" stroke="none"></path><text fill="#000000" stroke="none" font-family="Arial" font-size="13px" font-style="normal" font-weight="normal" text-decoration="none" x="181" y="808.5">PLAYER</text></g></g><g transform="translate(-22,2) scale(1,1)"><g><path fill="none" stroke="none"></path><text fill="#000000" stroke="none" font-family="Arial" font-size="13px" font-style="normal" font-weight="normal" text-decoration="none" x="181" y="823.5">ENEMY</text></g></g></g></svg>